<?xml version="1.0" standalone="no"?>
<!DOCTYPE svg PUBLIC "-//W3C//DTD SVG 20010904//EN"
 "http://www.w3.org/TR/2001/REC-SVG-20010904/DTD/svg10.dtd">
<svg version="1.0" xmlns="http://www.w3.org/2000/svg"
 width="280.000000pt" height="280.000000pt" viewBox="0 0 280.000000 280.000000"
 preserveAspectRatio="xMidYMid meet">
<metadata>
Created by potrace 1.11, written by Peter Selinger 2001-2013
</metadata>
<g transform="translate(0.000000,280.000000) scale(0.100000,-0.100000)"
fill="#000000" stroke="none">
<path d="M1368 2617 c-36 -30 -35 -71 3 -98 28 -20 30 -20 59 -2 24 14 30 24
30 53 0 29 -6 39 -29 53 -36 21 -31 21 -63 -6z"/>
<path d="M1033 2425 c-20 -14 -35 -66 -24 -82 3 -5 17 -16 31 -25 23 -14 29
-14 53 -2 15 8 27 18 28 22 1 4 2 19 3 34 5 46 -53 80 -91 53z"/>
<path d="M1710 2425 c-19 -10 -26 -23 -28 -49 -2 -31 2 -39 29 -55 29 -18 33
-18 60 -2 24 13 29 23 29 53 0 31 -5 40 -30 53 -34 18 -29 18 -60 0z"/>
<path d="M698 2233 c-23 -12 -28 -21 -28 -53 0 -32 5 -41 28 -53 24 -12 32
-12 60 2 27 12 32 20 32 51 0 35 -15 51 -60 66 -3 1 -17 -5 -32 -13z"/>
<path d="M1365 2232 c-18 -16 -21 -26 -16 -73 0 -9 14 -22 31 -29 25 -10 34
-10 55 4 19 13 25 25 25 55 0 31 -5 40 -25 49 -34 16 -46 15 -70 -6z"/>
<path d="M2033 2233 c-16 -11 -23 -26 -23 -49 0 -27 6 -36 30 -49 26 -13 35
-14 58 -3 38 18 44 79 10 102 -28 20 -46 20 -75 -1z"/>
<path d="M1038 2043 c-25 -16 -39 -54 -30 -82 2 -6 17 -18 33 -27 27 -14 32
-13 58 5 38 28 36 75 -5 101 -27 18 -31 18 -56 3z"/>
<path d="M1708 2039 c-40 -30 -39 -78 2 -102 29 -17 31 -17 60 0 25 14 30 24
30 54 0 36 -1 36 -60 66 -3 1 -17 -7 -32 -18z"/>
<path d="M357 2034 c-24 -13 -28 -21 -25 -50 4 -49 42 -73 87 -54 27 11 31 17
31 50 0 29 -6 41 -25 54 -29 19 -32 19 -68 0z"/>
<path d="M2385 2038 c-28 -16 -27 -14 -31 -51 -4 -28 1 -38 22 -52 45 -29 95
-5 99 49 2 31 -2 38 -28 51 -35 18 -36 18 -62 3z"/>
<path d="M668 1890 l-48 -30 0 -64 c0 -63 1 -64 35 -85 l35 -20 0 -91 0 -90
-35 -17 c-35 -17 -35 -17 -35 -85 0 -68 0 -68 35 -85 l35 -17 0 -96 0 -97 -35
-19 c-35 -18 -35 -19 -35 -84 l0 -65 54 -31 53 -31 39 24 c21 13 46 26 55 29
14 5 17 19 16 73 0 67 -1 69 -34 86 l-33 18 0 96 0 96 34 19 c34 18 35 19 34
82 -1 62 -2 65 -35 85 l-33 21 0 95 0 95 24 -6 c14 -3 55 -24 93 -46 65 -37
68 -41 68 -76 0 -35 4 -40 55 -70 l55 -33 32 19 33 19 80 -46 c79 -47 80 -48
80 -88 0 -38 2 -41 58 -72 l58 -32 32 21 33 20 77 -45 c60 -34 77 -50 79 -68
0 -13 1 -31 2 -39 1 -9 25 -30 55 -47 l54 -31 32 19 32 20 79 -47 c71 -41 79
-49 80 -77 1 -18 1 -35 0 -39 -1 -8 31 -31 82 -58 30 -16 32 -16 84 14 l53 31
0 66 c0 65 -1 66 -34 84 l-35 19 1 94 1 95 34 19 c32 20 33 21 33 89 0 48 -4
69 -12 69 -7 1 -23 9 -34 18 -19 16 -21 29 -21 106 l0 88 34 20 c34 20 34 21
31 86 l-3 66 -50 29 -50 30 -55 -30 -55 -30 -2 -65 c-2 -65 -2 -65 32 -84 37
-19 36 -18 36 -119 0 -25 0 -54 0 -64 -1 -11 -16 -29 -35 -41 -33 -20 -34 -23
-34 -84 0 -61 1 -63 33 -80 31 -17 34 -22 37 -75 5 -88 -1 -139 -18 -145 -8
-3 -49 13 -89 37 -60 34 -75 47 -76 67 -1 14 -2 34 -3 44 0 12 -22 32 -55 52
l-53 32 -43 -24 c-24 -13 -45 -20 -47 -16 -2 4 -33 25 -70 45 -57 32 -67 41
-66 65 1 53 -3 59 -56 87 l-55 29 -34 -19 -35 -18 -78 44 c-77 44 -78 44 -79
87 -1 47 -2 49 -65 84 l-46 26 -37 -23 -38 -23 -75 45 c-73 44 -78 51 -74 105
1 23 -7 32 -52 57 -29 17 -57 31 -63 31 -5 0 -31 -14 -57 -30z"/>
<path d="M1370 1852 c-39 -26 -37 -78 2 -102 28 -17 32 -17 59 -1 24 13 29 23
29 53 0 31 -5 40 -30 53 -35 18 -30 18 -60 -3z"/>
<path d="M363 1652 c-28 -13 -33 -21 -33 -51 0 -30 6 -39 31 -54 29 -16 32
-16 60 0 23 14 29 24 29 53 0 28 -6 39 -27 52 -26 14 -31 14 -60 0z"/>
<path d="M1710 1655 c-47 -25 -46 -86 2 -111 26 -14 31 -13 57 5 40 29 38 78
-4 102 -26 15 -33 16 -55 4z"/>
<path d="M2383 1650 c-25 -15 -31 -25 -31 -53 0 -29 5 -37 33 -50 30 -14 35
-14 62 2 28 17 30 26 24 83 -1 4 -14 14 -29 22 -26 13 -32 13 -59 -4z"/>
<path d="M358 1262 c-22 -14 -28 -24 -28 -53 0 -30 5 -38 33 -51 31 -15 36
-15 60 0 21 13 27 24 27 52 0 29 -6 39 -29 53 -34 20 -28 20 -63 -1z"/>
<path d="M1041 1266 c-47 -26 -47 -87 -1 -111 24 -12 30 -12 58 5 25 15 30 25
28 50 -1 20 -11 39 -27 51 -29 22 -27 22 -58 5z"/>
<path d="M2379 1257 c-38 -33 -37 -72 3 -97 30 -18 33 -18 60 -2 15 9 28 19
29 22 9 48 4 63 -25 81 -38 23 -36 24 -67 -4z"/>
<path d="M1374 1049 c-23 -14 -29 -27 -30 -54 -1 -30 4 -39 28 -51 25 -13 31
-13 57 1 16 8 31 20 33 26 10 29 -5 65 -32 81 -26 15 -30 15 -56 -3z"/>
<path d="M358 864 c-39 -20 -39 -70 -1 -100 26 -20 29 -21 60 -6 29 14 33 21
33 53 0 28 -6 41 -25 53 -29 19 -32 19 -67 0z"/>
<path d="M1037 864 c-15 -8 -27 -20 -28 -27 0 -7 -2 -24 -3 -39 -1 -21 5 -30
32 -42 31 -15 35 -15 61 3 26 19 29 30 22 83 -1 4 -13 14 -29 22 -24 12 -31
12 -55 0z"/>
<path d="M1708 862 c-22 -13 -28 -24 -28 -52 0 -29 6 -38 31 -53 29 -16 32
-16 60 0 23 14 29 24 29 53 0 29 -6 39 -29 53 -34 20 -28 20 -63 -1z"/>
<path d="M2385 868 c-28 -16 -27 -14 -31 -52 -4 -30 0 -36 29 -54 29 -16 36
-17 52 -6 10 7 23 15 28 17 6 2 11 19 12 38 0 26 -6 38 -25 51 -29 21 -38 21
-65 6z"/>
<path d="M698 684 c-52 -28 -31 -113 27 -114 60 -1 88 73 43 111 -28 22 -35
23 -70 3z"/>
<path d="M2038 667 c-38 -32 -36 -77 3 -100 28 -15 33 -15 60 -2 24 13 29 22
29 54 0 31 -5 40 -27 52 -16 7 -30 15 -33 16 -3 2 -17 -7 -32 -20z"/>
<path d="M1368 663 c-37 -23 -35 -77 3 -100 23 -14 31 -14 58 -3 27 11 31 17
31 50 0 56 -44 82 -92 53z"/>
<path d="M1038 481 c-16 -9 -28 -22 -29 -28 -4 -47 -1 -58 23 -76 24 -18 30
-18 57 -7 17 7 31 15 32 19 9 53 3 72 -26 89 -27 17 -32 17 -57 3z"/>
<path d="M1703 473 c-16 -11 -23 -25 -23 -49 0 -29 5 -37 34 -50 31 -15 35
-15 60 1 34 23 37 76 4 99 -28 20 -47 19 -75 -1z"/>
<path d="M1373 281 c-42 -26 -43 -72 -3 -101 27 -20 31 -20 60 -5 25 13 30 21
30 53 0 31 -5 41 -28 54 -27 16 -30 16 -59 -1z"/>
</g>
</svg>
