<?xml version="1.0" encoding="utf-8"?>
<!-- Generator: Adobe Illustrator 23.0.1, SVG Export Plug-In . SVG Version: 6.00 Build 0)  -->
<svg version="1.1" id="Layer_1" xmlns="http://www.w3.org/2000/svg" xmlns:xlink="http://www.w3.org/1999/xlink" x="0px" y="0px"
	 viewBox="0 0 200 200" style="enable-background:new 0 0 200 200;" xml:space="preserve">
<style type="text/css">
	.st0{fill:#0062F2;}
</style>
<g>
	<path class="st0" d="M77.5,54c17,0,34,0.1,51-0.1c3.2,0,4.8,0.7,4.2,4.1c0,0.2,0,0.3,0,0.5c0.1,4.6-1.6,10.8,0.8,13.5
		c2.7,3.2,9.1,0.8,13.8,1c4.5,0.2,9,0.2,13.5,0c2.7-0.1,3.5,0.9,3.4,3.4c-0.2,4.5,0.2,9-0.1,13.5c-0.3,3.6,1,5.8,4.1,6.9
		c9.1,3.3,12.6,9.4,11,19.1c-0.7,4.4-0.3,9-0.1,13.5c0.2,3.1-0.8,4.4-3.8,3.8c-3.8-0.7-5.7,0.7-7.1,4.6c-2.3,6.6-7.7,9.8-14.7,10
		c-6.6,0.2-13-3.8-15.1-10.2c-1.3-3.8-3.1-4.5-6.8-4.5c-18.6,0.2-37.3,0.1-55.9,0c-2.8,0-4.3,0.5-5.3,3.6
		c-2.3,7.1-8.5,11.2-15.5,11.1c-6.8-0.1-12.8-4.1-15-11c-1.1-3.4-2.8-3.7-5.8-3.7c-11,0.1-11,0-11-11.1c0-21,0.1-42-0.1-62.9
		c0-4,0.8-5.3,5.1-5.3C44.5,54.2,61,54,77.5,54z M77.5,63.2c-13.8,0-27.6,0-41.5,0c-2.4,0-4,0.1-4,3.3c0.1,18.1,0.1,36.3,0.1,54.4
		c0,1.2-0.5,3.1,1.6,3c2.9-0.1,5.9,1,8.5-2.3c6.9-9,18.6-8.9,25.7-0.2c1.5,1.9,2.9,2.7,5.3,2.7c15.3-0.1,30.6-0.2,46,0
		c3.7,0.1,4.3-1.3,4.3-4.6c-0.1-17.3-0.2-34.6,0-51.9c0-3.4-0.9-4.6-4.4-4.5C105.1,63.3,91.3,63.2,77.5,63.2z M146.1,101.9
		c-4.3,0.3-9.9-1.9-12.5,0.7c-2.9,2.8-0.6,8.5-1,12.9c-0.1,1-0.1,2,0,3c0.3,1.8-1.2,4.4,1.2,5.3c2.6,0.9,4.7,0.1,6.7-2.5
		c5.5-7.2,15.1-8.2,22.3-3.2c2.4,1.7,3.8,6.6,6.2,5.2c2.3-1.4,0.3-6.2,0.8-9.4c0.6-3.9-1.3-5.7-4.3-7.9
		C159.6,101.5,153,101.5,146.1,101.9z M143.9,92.7c2.6,0,5.3-0.2,7.9,0c3.9,0.3,3.3-2.5,3-4.6s2-5.8-2.8-5.8c-5.6,0-11.3,0-16.9,0
		c-1.9,0-2.5,0.8-2.8,2.6c-0.9,7-0.3,7.8,6.5,7.8C140.6,92.7,142.3,92.7,143.9,92.7z M55,124.2c-3.9,0-7.2,3.4-7.2,7.4
		c0,3.8,3.1,7,6.8,7.2c3.9,0.2,7.3-3.2,7.4-7.1C62.2,127.6,59,124.2,55,124.2z M160.4,131.3c-0.1-4-3.5-7.3-7.4-7.1
		c-3.7,0.2-6.9,3.4-6.9,7.2c-0.1,3.9,3.4,7.4,7.2,7.4C157.2,138.8,160.4,135.4,160.4,131.3z"/>
</g>
</svg>
