<?xml version="1.0" encoding="utf-8"?>
<!-- Generator: Adobe Illustrator 23.0.1, SVG Export Plug-In . SVG Version: 6.00 Build 0)  -->
<svg version="1.1" id="Layer_1" xmlns="http://www.w3.org/2000/svg" xmlns:xlink="http://www.w3.org/1999/xlink" x="0px" y="0px"
	 viewBox="0 0 200 200" style="enable-background:new 0 0 200 200;" xml:space="preserve">
<style type="text/css">
	.st0{fill:#0062F2;}
	.st1{fill:#0766F1;}
</style>
<g>
	<path class="st0" d="M108.7,31c41.6,0,70.1,42.4,54.3,80.8c-1.2,2.9-1.2,5.3-0.2,8.1c2.2,6.1,4.2,12.3,6.4,18.4
		c1.4,3.8,1,7.2-1.9,10.2c-2.9,2.9-6.3,3.4-10.1,2.1c-6.4-2.3-13-4.3-19.4-6.7c-2.4-0.9-4.4-0.8-6.6,0.2c-5.3,2.5-11,3.9-16.9,4.2
		c-2.9,0.2-4.8,1.3-6.8,3.4c-13.2,14.1-29.2,17.8-47.4,11.5c-2.2-0.8-4.1-0.8-6.2,0c-4.2,1.5-8.5,3-12.7,4.4c-3.1,1-5.9,0.3-8.2-2.1
		c-2.2-2.3-2.6-4.9-1.6-7.9c0.4-1.1,0.7-2.2,1.2-3.3c2.9-7.1,3.7-13.9,1.6-21.9C30,116.9,34.9,103.1,46.6,92
		c2.4-2.3,3.4-4.5,3.6-7.7C52.6,54.3,78.3,31,108.7,31z M109,39.4c-27.6-0.1-50.2,21.8-50.7,49.2c-0.8,36.9,37.1,62,70.9,47.1
		c3.5-1.5,6.5-1.8,10-0.5c6.1,2.3,12.2,4.3,18.4,6.4c1,0.3,2.3,1.4,3.2,0.5c1.2-1.1,0.1-2.5-0.3-3.7c-2-6-4-12-6.2-17.9
		c-1.4-3.6-1.3-6.7,0.4-10.4C169.4,77.1,145.1,39.6,109,39.4z M99.1,148.1c-26.2-6-42.2-21.9-48.5-47.7c-9.4,8.5-12.1,23.9-6.4,36.7
		c1.3,3,1.4,5.6,0.3,8.5c-1.6,4.2-3,8.6-4.7,13.6c4.2-1.5,7.6-2.4,10.8-3.8c4.5-1.9,8.5-2,13.2,0.1
		C75.8,160.6,90.4,157.3,99.1,148.1z"/>
	<path class="st1" d="M108.9,76.1c-7.7,0-15.3,0-23,0c-2.9,0-5.7-0.6-5.9-4c-0.1-3.7,2.8-4.4,5.9-4.3c15.2,0,30.3,0,45.5,0
		c2.9,0,5.7,0.4,5.8,3.9c0.1,3.8-2.7,4.4-5.9,4.4C123.9,76.1,116.4,76.1,108.9,76.1z"/>
	<path class="st1" d="M108.3,93.1c-7.5,0-15,0-22.5,0c-3,0-5.7-0.6-5.8-4s2.5-4.3,5.5-4.3c15.3,0,30.7,0,46,0c2.9,0,5.7,0.6,5.7,4
		c0.1,3.8-2.9,4.2-6,4.2C123.6,93.1,115.9,93.1,108.3,93.1z"/>
</g>
</svg>
