<?xml version="1.0" encoding="utf-8"?>
<!-- Generator: Adobe Illustrator 23.0.1, SVG Export Plug-In . SVG Version: 6.00 Build 0)  -->
<svg version="1.1" id="Layer_1" xmlns="http://www.w3.org/2000/svg" xmlns:xlink="http://www.w3.org/1999/xlink" x="0px" y="0px"
	 viewBox="0 0 200 200" style="enable-background:new 0 0 200 200;" xml:space="preserve">
<style type="text/css">
	.st0{fill:#0062F2;}
	.st1{fill:#0263F1;}
</style>
<g>
	<path class="st0" d="M100.5,154.9c-17.1,0-34.3,0-51.4,0c-5.9,0-7.4-1.2-7-6.9c0.7-10.5-1.5-20.4-5.1-30.1
		c-4.1-11.2-7.3-22.8-11.6-33.9c-2.1-5.4-0.7-8.6,3.5-11.9c24-19.1,51.3-26.8,81.6-24.4c23,1.8,43.6,9.9,61.7,24.5
		c4.2,3.4,5.5,6.5,3.5,11.9c-4.2,11-7.4,22.4-11.4,33.5c-3.7,10.1-6.2,20.3-5.2,31.1c0.5,4.7-1.9,6.5-6.6,6.5
		C135.1,154.9,117.8,154.9,100.5,154.9z M100.7,128c15.3,0,30.7-0.1,46,0.1c3.3,0,5-0.7,6.1-4.1c4.3-13.5,8.7-26.9,13.4-40.2
		c1.1-3.1,0.5-4.7-2-6.6c-35.2-28-92.8-27.9-127.6,0.2c-2,1.6-2.9,2.9-1.9,5.8c4.8,13.6,9.3,27.4,13.7,41.2c0.9,2.9,2.2,3.8,5.3,3.8
		C69.3,127.9,85,128,100.7,128z M100.7,136.9c-15,0-30,0.1-45-0.1c-3.4,0-5.1,0.3-4.9,4.4c0.1,3.7,0.9,4.7,4.7,4.7
		c30-0.2,60-0.2,90,0c3.8,0,4.6-1.1,4.7-4.7c0.1-4.2-1.6-4.5-4.9-4.4C130.4,137,115.6,136.9,100.7,136.9z"/>
	<path class="st1" d="M123,91c-0.1,2.9-1.6,4.3-4.4,4.4c-3.5,0.1-7,0.2-10.5,0c-3.1-0.2-4.1,1-3.9,4c0.2,3.6,0,7.3,0,11
		c0,2.8-1.2,4.5-4.1,4.6c-3.1,0.1-4.5-1.7-4.5-4.7c0-3.8-0.1-7.7,0-11.5c0.1-2.7-1-3.5-3.5-3.4c-3.8,0.1-7.7,0-11.5,0
		c-2.7,0-4.5-1.2-4.6-4.1c-0.1-3.1,1.7-4.5,4.7-4.5c3.7,0,7.3-0.2,11,0c3.1,0.2,4.1-1,3.9-4c-0.2-3.3-0.1-6.7,0-10
		c0-3,1.4-4.8,4.5-4.7c2.9,0.1,4.1,1.8,4.1,4.6c0,2.8,0.3,5.7-0.1,8.5c-0.7,4.9,1.5,6.1,5.9,5.6c2.8-0.3,5.7-0.1,8.5,0
		C121.3,86.8,122.8,88.2,123,91z"/>
</g>
</svg>
